<svg xmlns="http://www.w3.org/2000/svg" viewBox="0 0 256 256" fill="none">
  <!-- Cloud body -->
  <path d="M200 128c0-2.2-.1-4.4-.3-6.5C196.4 85.8 165.3 58 128 58c-30.9 0-57.5 18.3-69.6 44.7C28.6 107.5 8 131.2 8 160c0 33.1 26.9 60 60 60h124c28.7 0 52-23.3 52-52 0-23.2-15.2-42.8-36-49.5" fill="#4285F4"/>
  <path d="M68 220c-33.1 0-60-26.9-60-60 0-28.8 20.6-52.5 50.4-57.3C70.5 76.3 97.1 58 128 58c37.3 0 68.4 27.8 71.7 63.5.2 2.1.3 4.3.3 6.5 20.8 6.7 36 26.3 36 49.5 0 28.7-23.3 52-52 52H68z" fill="#4285F4" opacity="0.9"/>
  <!-- Sync arrows -->
  <g transform="translate(128,148)">
    <!-- Up arrow -->
    <path d="M-8 10 L0-15 L8 10 L4 10 L4 30 L-4 30 L-4 10 Z" fill="white" transform="translate(-24,0)"/>
    <!-- Down arrow -->
    <path d="M-8-10 L0 15 L8-10 L4-10 L4-30 L-4-30 L-4-10 Z" fill="white" transform="translate(24,0)"/>
  </g>
</svg>
